<?xml version="1.0" encoding="iso-8859-1"?>
<!-- Generator: Adobe Illustrator 21.0.0, SVG Export Plug-In . SVG Version: 6.00 Build 0)  -->
<svg version="1.1" id="Capa_1" xmlns="http://www.w3.org/2000/svg" xmlns:xlink="http://www.w3.org/1999/xlink" x="0px" y="0px"
	 viewBox="0 0 512 512" style="enable-background:new 0 0 512 512;" xml:space="preserve">
<linearGradient id="SVGID_1_" gradientUnits="userSpaceOnUse" x1="74.9807" y1="439.0193" x2="437.0193" y2="76.9807" gradientTransform="matrix(1 0 0 -1 0 514)">
	<stop  offset="0" style="stop-color:#E7E7E7"/>
	<stop  offset="1" style="stop-color:#9E9EA2"/>
</linearGradient>
<circle style="fill:url(#SVGID_1_);" cx="256" cy="256" r="256"/>
<linearGradient id="SVGID_2_" gradientUnits="userSpaceOnUse" x1="60" y1="258" x2="452" y2="258" gradientTransform="matrix(1 0 0 -1 0 514)">
	<stop  offset="0" style="stop-color:#FF3636"/>
	<stop  offset="1" style="stop-color:#960000"/>
</linearGradient>
<path style="fill:url(#SVGID_2_);" d="M256,60C148.277,60,60,148.277,60,256s88.277,196,196,196s196-88.277,196-196
	S363.723,60,256,60z"/>
<linearGradient id="SVGID_3_" gradientUnits="userSpaceOnUse" x1="158.613" y1="258" x2="353.387" y2="258" gradientTransform="matrix(1 0 0 -1 0 514)">
	<stop  offset="0" style="stop-color:#FFFFFF"/>
	<stop  offset="1" style="stop-color:#D3D3D8"/>
</linearGradient>
<polygon style="fill:url(#SVGID_3_);" points="288.385,256 353.387,321.002 321.002,353.387 256,288.385 190.998,353.387 
	158.613,321.002 223.615,256 158.613,190.998 190.998,158.613 256,223.615 321.002,158.613 353.387,190.998 "/>
<g>
</g>
<g>
</g>
<g>
</g>
<g>
</g>
<g>
</g>
<g>
</g>
<g>
</g>
<g>
</g>
<g>
</g>
<g>
</g>
<g>
</g>
<g>
</g>
<g>
</g>
<g>
</g>
<g>
</g>
</svg>
