<?xml version="1.0" encoding="iso-8859-1"?>
<!-- Generator: Adobe Illustrator 19.0.0, SVG Export Plug-In . SVG Version: 6.00 Build 0)  -->
<svg version="1.1" id="Capa_1" xmlns="http://www.w3.org/2000/svg" xmlns:xlink="http://www.w3.org/1999/xlink" x="0px" y="0px"
	 viewBox="0 0 512 512" style="enable-background:new 0 0 512 512;" xml:space="preserve">
<circle style="fill:#DADADC;" cx="256" cy="256" r="256"/>
<path style="fill:#B0AFB5;" d="M512,256c0-6.736-0.264-13.409-0.775-20.014l-90.6-90.6h-7.542l-80.18-81.053H179.096v64.484h-14.642
	v16.568h-73.08v49.132l10.438,9.231v143.427c-3.571,0.014-7.06,0.373-10.438,1.042v64.157l87.93,87.93
	C203.519,507.9,229.28,512,256,512C397.385,512,512,397.385,512,256z"/>
<polygon style="fill:#9330B2;" points="179.096,64.333 179.096,136.91 202.934,136.91 202.934,88.171 309.066,88.171 
	309.066,136.91 332.904,136.91 332.904,64.333 "/>
<polygon style="fill:#4F0953;" points="332.903,64.33 332.903,136.91 309.063,136.91 309.063,88.17 254.333,88.17 254.333,64.33 "/>
<rect x="164.46" y="128.82" style="fill:#FFFFFF;" width="53.26" height="20.274"/>
<rect x="294.29" y="128.82" style="fill:#FFED93;" width="53.26" height="20.274"/>
<rect x="101.81" y="177.6" style="fill:#9330B2;" width="308.37" height="223.98"/>
<rect x="254.33" y="177.6" style="fill:#4F0953;" width="155.85" height="223.99"/>
<path style="fill:#FFB844;" d="M102.028,347.172c-3.647,0-7.207,0.365-10.654,1.048v64.157h64.157
	c0.683-3.446,1.048-7.007,1.048-10.654C156.579,371.595,132.156,347.172,102.028,347.172z"/>
<path style="fill:#FF7600;" d="M409.972,347.172c3.647,0,7.207,0.365,10.654,1.048v64.157h-64.157
	c-0.683-3.446-1.048-7.007-1.048-10.654C355.421,371.595,379.844,347.172,409.972,347.172z"/>
<rect x="91.37" y="145.39" style="fill:#FFB844;" width="329.25" height="49.13"/>
<rect x="254.33" y="145.39" style="fill:#FF7600;" width="166.29" height="49.13"/>
<path style="fill:#FFFFFF;" d="M217.141,305.915h77.719c5.951,11.668,18.071,19.663,32.067,19.663
	c14.475,0,26.946-8.551,32.658-20.874h-25.051l-15.763-15.11l15.763-15.11h25.051c-5.711-12.323-18.182-20.874-32.658-20.874
	c-13.996,0-26.116,7.995-32.067,19.663h-77.719c-5.951-11.668-18.071-19.663-32.067-19.663c-14.475,0-26.946,8.552-32.658,20.874
	h25.051l15.763,15.11l-15.763,15.11h-25.051c5.711,12.323,18.182,20.874,32.658,20.874
	C199.07,325.578,211.19,317.582,217.141,305.915z"/>
<path style="fill:#FFED93;" d="M334.533,304.7h25.05c-5.71,12.33-18.18,20.88-32.66,20.88c-13.99,0-26.11-8-32.06-19.67h-40.53
	v-32.64h40.53c5.95-11.66,18.07-19.66,32.06-19.66c14.48,0,26.95,8.55,32.66,20.87h-25.05l-15.76,15.11L334.533,304.7z"/>
<g>
</g>
<g>
</g>
<g>
</g>
<g>
</g>
<g>
</g>
<g>
</g>
<g>
</g>
<g>
</g>
<g>
</g>
<g>
</g>
<g>
</g>
<g>
</g>
<g>
</g>
<g>
</g>
<g>
</g>
</svg>
