<svg height="512pt" viewBox="0 0 512 512" width="512pt" xmlns="http://www.w3.org/2000/svg" xmlns:xlink="http://www.w3.org/1999/xlink"><linearGradient id="a" gradientUnits="userSpaceOnUse" x1="0" x2="512" y1="256" y2="256"><stop offset="0" stop-color="#00f38d"/><stop offset="1" stop-color="#009eff"/></linearGradient><path d="m512 256c0 141.386719-114.613281 256-256 256s-256-114.613281-256-256 114.613281-256 256-256 256 114.613281 256 256zm0 0" fill="url(#a)"/><g fill="#fff"><path d="m389.089844 137.582031v27.609375c-10.988282-16.09375-24.859375-30.136718-41.136719-41.472656-27.0625-18.847656-58.859375-28.808594-91.953125-28.808594-88.824219 0-161.089844 72.265625-161.089844 161.089844h28c0-73.386719 59.703125-133.089844 133.089844-133.089844 47.039062 0 89.289062 24.097656 113.214844 62.996094h-28.453125v28h76.328125v-76.324219zm0 0"/><path d="m256.625 389.089844c-47.039062 0-89.289062-24.09375-113.214844-62.996094h27.203125v-28h-75.703125v76.324219h28v-28.511719c11.082032 16.476562 25.179688 30.828125 41.761719 42.375 27.0625 18.847656 58.859375 28.808594 91.953125 28.808594 43.003906 0 83.355469-16.769532 113.621094-47.210938 30.207031-30.386718 46.84375-70.828125 46.84375-113.878906h-28c0 73.386719-59.425782 133.089844-132.464844 133.089844zm0 0"/><path d="m269.089844 236.054688c0 6.886718-5.582032 12.464843-12.46875 12.464843-6.882813 0-12.464844-5.578125-12.464844-12.464843 0-6.882813 5.582031-12.464844 12.464844-12.464844 6.886718 0 12.46875 5.582031 12.46875 12.464844zm0 0"/><path d="m256 346.117188 9.503906-8.785157c6.199219-5.730469 60.589844-57.25 60.589844-100.273437v-1.71875c0-38.632813-31.445312-70.0625-70.09375-70.0625s-70.09375 31.433594-70.09375 70.0625v1.71875c0 43.023437 54.390625 94.542968 60.589844 100.273437zm-42.09375-109.058594v-1.71875c0-23.191406 18.882812-42.0625 42.09375-42.0625s42.09375 18.871094 42.09375 42.0625v1.71875c0 19.804687-22.960938 50.296875-42.09375 70.320312-19.136719-20.027344-42.09375-50.519531-42.09375-70.320312zm0 0"/></g></svg>