<svg height="512pt" viewBox="0 0 512 512" width="512pt" xmlns="http://www.w3.org/2000/svg"><path d="m512 256c0 141.386719-114.613281 256-256 256s-256-114.613281-256-256 114.613281-256 256-256 256 114.613281 256 256zm0 0" fill="#00eccf"/><path d="m512 256c0-27.371094-4.3125-53.734375-12.269531-78.464844l-117.265625-117.265625h-47.195313v20.148438l-21.382812-20.148438h-47.195313v18.75l-21.382812-18.75h-47.195313v18.75l-21.382812-18.75h-47.195313v32h-22.101562v63.667969h-5.335938l-5.082031-5.257812c-1.898437-2.757813-5.070313-4.574219-8.65625-4.574219h-21.335937c-5.796876 0-10.539063 4.742187-10.539063 10.539062v43.25c0 3.1875 1.433594 6.054688 3.6875 7.992188l47.261719 46.597656v13.621094h-22.964844v97.664062h-12.03125v30l33.621094 33.769531c.519531 3.652344 2.273437 6.910157 4.828125 9.332032l57.898437 57.878906c27.222656 9.863281 56.589844 15.25 87.214844 15.25 141.386719 0 256-114.613281 256-256zm0 0" fill="#00cab1"/><path d="m81.445312 155.9375h32.703126v30h-32.703126zm0 0" fill="#ff001a"/><path d="m88.359375 210.4375h-21.335937c-5.796876 0-10.539063-4.746094-10.539063-10.542969v-43.25c0-5.796875 4.742187-10.542969 10.539063-10.542969h21.335937c5.796875 0 10.539063 4.746094 10.539063 10.542969v43.25c0 5.796875-4.742188 10.542969-10.539063 10.542969zm0 0" fill="#ff6339"/><path d="m397.851562 155.9375h32.703126v30h-32.703126zm0 0" fill="#bb1000"/><path d="m423.640625 210.4375h21.335937c5.796876 0 10.539063-4.746094 10.539063-10.542969v-43.25c0-5.796875-4.742187-10.542969-10.539063-10.542969h-21.335937c-5.796875 0-10.539063 4.746094-10.539063 10.542969v43.25c0 5.796875 4.742188 10.542969 10.539063 10.542969zm0 0" fill="#ff4e0a"/><path d="m157.898438 443.269531h-36c-8.835938 0-16-7.164062-16-16v-36.332031c0-8.835938 7.164062-16 16-16h36c8.835937 0 16 7.164062 16 16v36.332031c0 8.835938-7.164063 16-16 16zm0 0" fill="#00429b"/><path d="m390.101562 443.269531h-36c-8.835937 0-16-7.164062-16-16v-36.332031c0-8.835938 7.164063-16 16-16h36c8.835938 0 16 7.164062 16 16v36.332031c0 8.835938-7.164062 16-16 16zm0 0" fill="#002659"/><path d="m129.535156 60.269531h47.195313v37.5h-47.195313zm0 0" fill="#ffe767"/><path d="m198.113281 60.269531h47.195313v37.5h-47.195313zm0 0" fill="#ff9b00"/><path d="m266.691406 60.269531h47.195313v37.5h-47.195313zm0 0" fill="#ffd000"/><path d="m335.269531 60.269531h47.195313v37.5h-47.195313zm0 0" fill="#ff8a00"/><path d="m107.433594 92.269531h297.132812v186.667969h-297.132812zm0 0" fill="#ff001a"/><path d="m256 92.269531h148.570312v186.671875h-148.570312zm0 0" fill="#e30015"/><path d="m84.46875 268.101562h343.066406v106.835938h-343.066406zm0 0" fill="#ff6339"/><path d="m256 268.101562h171.53125v106.839844h-171.53125zm0 0" fill="#ff4e0a"/><path d="m72.4375 365.769531h367.125v30h-367.125zm0 0" fill="#fff5ca"/><path d="m256 365.769531h183.558594v30h-183.558594zm0 0" fill="#ffe767"/><path d="m137.066406 154.667969h111.078125v91.871093h-111.078125zm0 0" fill="#fff"/><path d="m263.859375 154.667969h111.074219v91.871093h-111.074219zm0 0" fill="#fff5ca"/><path d="m296.722656 353.546875h-81.445312c-9.011719 0-16.386719-7.375-16.386719-16.390625v-38.664062c0-9.011719 7.375-16.386719 16.386719-16.386719h81.445312c9.011719 0 16.386719 7.375 16.386719 16.386719v38.664062c0 9.015625-7.375 16.390625-16.386719 16.390625zm0 0" fill="#fff"/><path d="m313.109375 298.488281v38.671875c0 9.011719-7.378906 16.378906-16.390625 16.378906h-40.71875v-71.4375h40.71875c9.011719 0 16.390625 7.378907 16.390625 16.386719zm0 0" fill="#fff5ca"/><path d="m223.085938 302.824219h65.828124v30h-65.828124zm0 0" fill="#fff5ca"/><path d="m256 302.824219h32.914062v30h-32.914062zm0 0" fill="#ffe767"/><path d="m148.375 345.269531h-26.351562c-6.597657 0-12-5.398437-12-12v-27c0-6.597656 5.402343-12 12-12h26.351562c6.597656 0 12 5.402344 12 12v27c0 6.601563-5.402344 12-12 12zm0 0" fill="#ffe767"/><path d="m389.976562 345.269531h-26.351562c-6.597656 0-12-5.398437-12-12v-27c0-6.597656 5.402344-12 12-12h26.351562c6.597657 0 12 5.402344 12 12v27c0 6.601563-5.402343 12-12 12zm0 0" fill="#ffd000"/></svg>